<svg xmlns="http://www.w3.org/2000/svg" viewBox="0 0 24 24">
    <path d="M12 0C5.373 0 0 5.373 0 12s5.373 12 12 12 12-5.373 12-12S18.627 0 12 0zm1.845 5.336l5.016-1.12a.5.5 0 0 1 .627.486v6.243c0 2.646-1.716 4.187-3.998 4.187-1.371 0-2.498-.61-2.498-1.704 0-1.056.922-1.688 2.559-2.126 1.663-.453 1.896-.737 1.896-1.598V8.47a.25.25 0 0 0-.308-.243l-3.44.766a.5.5 0 0 0-.391.486v5.62c0 2.574-1.685 4.204-3.893 4.204-1.41 0-2.502-.586-2.502-1.704 0-1.035.893-1.65 2.393-2.1 1.74-.494 2.002-.801 2.002-1.58V5.822a.25.25 0 0 1 .195-.244z" />
</svg>
