<svg width="24" height="25" viewBox="0 0 24 25" fill="none" xmlns="http://www.w3.org/2000/svg">
    <path fill-rule="evenodd" clip-rule="evenodd" d="M20.29 7.50048L14.73 3.39048C13.1036 2.20317 10.8964 2.20317 9.27 3.39048L3.72 7.50048C2.64544 8.27462 2.0061 9.51612 2 10.8405V18.2705C2.06002 20.6637 4.04665 22.5564 6.44 22.5005H17.56C19.9534 22.5564 21.94 20.6637 22 18.2705V10.8305C21.9914 9.51185 21.3567 8.27576 20.29 7.50048ZM20.5 18.2705C20.4404 19.8354 19.1251 21.0568 17.56 21.0005H6.44C4.87698 21.0512 3.56502 19.833 3.5 18.2705V10.8405C3.50534 9.9904 3.91817 9.19448 4.61 8.70048L10.16 4.60048C11.2561 3.80006 12.7439 3.80006 13.84 4.60048L19.39 8.71048C20.0812 9.1959 20.4948 9.98583 20.5 10.8305V18.2705ZM7.5 16.2505H16.5C16.9142 16.2505 17.25 16.5863 17.25 17.0005C17.25 17.4147 16.9142 17.7505 16.5 17.7505H7.5C7.08579 17.7505 6.75 17.4147 6.75 17.0005C6.75 16.5863 7.08579 16.2505 7.5 16.2505Z" fill="#82898F"/>
</svg>
