<svg width="25" height="25" viewBox="0 0 25 25" fill="none" xmlns="http://www.w3.org/2000/svg">
    <path fill-rule="evenodd" clip-rule="evenodd" d="M19.9733 7.37998C19.9592 6.42897 19.4667 5.54916 18.6633 5.03998C17.5991 4.33707 16.2585 4.1989 15.0733 4.66998L10.5233 6.49998C9.3679 6.9072 8.57616 7.97604 8.52332 9.19998V16.5C8.13237 16.2915 7.6964 16.1816 7.25332 16.18C5.71244 16.18 4.46332 17.4291 4.46332 18.97C4.46332 20.5109 5.71244 21.76 7.25332 21.76C8.79419 21.76 10.0433 20.5109 10.0433 18.97V9.17998C10.0987 8.57112 10.5181 8.0568 11.1033 7.87998L15.6433 6.06998C16.3674 5.7798 17.1872 5.85805 17.8433 6.27998C18.2282 6.51698 18.4714 6.92854 18.4933 7.37998V14.64C18.0924 14.4281 17.6467 14.315 17.1933 14.31C15.6672 14.3007 14.4168 15.5194 14.3869 17.0453C14.357 18.5711 15.5586 19.8379 17.084 19.8884C18.6093 19.9389 19.8922 18.7545 19.9633 17.23C19.968 17.1834 19.968 17.1365 19.9633 17.09L19.9733 7.37998ZM7.25331 20.25C6.54907 20.2595 5.96734 19.7025 5.94638 18.9985C5.92541 18.2945 6.47298 17.7038 7.17654 17.6715C7.8801 17.6391 8.47957 18.177 8.52331 18.88V19.05C8.48611 19.7239 7.92826 20.251 7.25331 20.25ZM15.9744 17.5906C16.1772 18.0723 16.6507 18.384 17.1733 18.38C17.5145 18.38 17.8416 18.2438 18.082 18.0015C18.3223 17.7593 18.456 17.4312 18.4533 17.09C18.4533 16.5673 18.1379 16.0963 17.6546 15.8972C17.1714 15.6982 16.6157 15.8104 16.2476 16.1814C15.8795 16.5524 15.7716 17.1089 15.9744 17.5906Z" fill="#82898F"/>
</svg>
