<svg width="24" height="25" viewBox="0 0 24 25" fill="none" xmlns="http://www.w3.org/2000/svg">
    <path fill-rule="evenodd" clip-rule="evenodd" d="M4.06176 8.16945C5.48796 4.74481 8.82961 2.51016 12.5393 2.50025C16.5375 2.4792 20.0926 5.04018 21.339 8.83922C22.5853 12.6383 21.2381 16.8075 18.0044 19.1589C14.7707 21.5104 10.3893 21.5069 7.15934 19.1503L4.27934 22.0303C3.98652 22.3227 3.51216 22.3227 3.21934 22.0303C2.92689 21.7374 2.92689 21.2631 3.21934 20.9703L6.00934 18.1803C3.40324 15.5401 2.63556 11.5941 4.06176 8.16945ZM5.39891 14.6692C6.59638 17.5549 9.41508 19.4343 12.5393 19.4303V19.3903C16.7796 19.3848 20.2219 15.9605 20.2493 11.7203C20.2534 8.59599 18.374 5.77729 15.4883 4.57982C12.6026 3.38235 9.27967 4.0422 7.07048 6.25139C4.86129 8.46058 4.20144 11.7835 5.39891 14.6692Z" fill="#82898F"/>
</svg>
