<svg xmlns="http://www.w3.org/2000/svg" viewBox="0 0 24 24">
    <path d="M12 0C5.372 0 0 5.372 0 12c0 6.627 5.372 12 12 12s12-5.373 12-12C24 5.372 18.627 0 12 0zm5.413 17.38a.81.81 0 01-1.112.29c-3.04-1.85-6.864-2.263-11.372-1.217a.811.811 0 11-.344-1.589c4.855-1.052 9.12-.586 12.535 1.38a.81.81 0 01.293 1.136zm1.382-3.02a1.013 1.013 0 01-1.39.365c-3.474-2.112-8.764-2.731-12.867-1.473a1.013 1.013 0 11-.595-1.93c4.576-1.412 10.285-.714 14.17 1.628.48.292.634.92.365 1.41zm.122-3.38c-4.046-2.48-10.765-2.715-14.637-1.469a1.215 1.215 0 01-.67-2.352c4.432-1.363 12.022-1.092 16.644 1.707a1.214 1.214 0 01-1.337 2.114z" />
</svg>
