<svg width="25" height="25" viewBox="0 0 25 25" fill="none" xmlns="http://www.w3.org/2000/svg">
    <path d="M9.58659 12.5H9.66659C11.8757 12.5 13.6666 10.7092 13.6666 8.50002V6.93002C13.664 6.03275 13.3036 5.17358 12.6654 4.54288C12.0272 3.91218 11.1638 3.56203 10.2666 3.57002H8.94659C7.0932 3.57551 5.59209 5.07662 5.58659 6.93002V8.50002C5.58659 10.7092 7.37745 12.5 9.58659 12.5Z" fill="#0085FF"/>
    <path d="M18.1666 11.75C19.8235 11.75 21.1666 10.4069 21.1666 8.75002V7.60002C21.1666 6.21603 20.0505 5.091 18.6666 5.08002H17.6666C16.2827 5.091 15.1666 6.21603 15.1666 7.60002V8.75002C15.1666 10.4069 16.5097 11.75 18.1666 11.75Z" fill="#0085FF"/>
    <path d="M23.0566 15.92L22.8966 15.13C22.7075 14.0455 21.7675 13.253 20.6666 13.25H14.5666C13.8211 13.2516 13.1263 13.6272 12.7166 14.25H5.66659C4.95927 14.2505 4.27914 14.5226 3.76659 15.01C3.32622 15.4135 3.01633 15.9393 2.87659 16.52C2.87659 16.57 2.87659 16.62 2.87659 16.66V16.92L2.66659 17.72C2.45271 18.5952 2.64351 19.5203 3.18627 20.2394C3.72902 20.9586 4.56626 21.3957 5.46659 21.43H13.7466C13.9591 21.4293 14.1707 21.4024 14.3766 21.35H14.5066C14.6569 21.3072 14.8039 21.2537 14.9466 21.19L15.1066 21.1C15.2259 21.0327 15.3397 20.9557 15.4466 20.87L15.6066 20.74C15.705 20.6483 15.7984 20.5515 15.8866 20.45C15.8866 20.4 15.9766 20.36 16.0166 20.3C16.1284 20.1532 16.2255 19.9958 16.3066 19.83C16.3493 19.7392 16.386 19.6456 16.4166 19.55C16.4559 19.4589 16.4893 19.3654 16.5166 19.27C16.5166 19.17 16.5666 19.07 16.5866 18.97V18.82H20.8666C21.5727 18.7991 22.2313 18.459 22.657 17.8952C23.0828 17.3314 23.2297 16.6049 23.0566 15.92Z" fill="#0085FF"/>
</svg>
