<svg width="24" height="25" viewBox="0 0 24 25" fill="none" xmlns="http://www.w3.org/2000/svg">
    <path fill-rule="evenodd" clip-rule="evenodd" d="M14.4537 4.3032L19.4558 7.99793C20.4198 8.6956 20.9934 9.81112 21 11.0011V17.6895C20.938 19.8342 19.1566 21.5268 17.0116 21.479H6.99789C4.8492 21.532 3.06195 19.838 3 17.6895V11.0011C3.00659 9.81112 3.58019 8.6956 4.54421 7.99793L9.54632 4.3032C11.0068 3.23227 12.9932 3.23227 14.4537 4.3032ZM7.73684 17.4716H16.2632C16.6556 17.4716 16.9737 17.1535 16.9737 16.7611C16.9737 16.3687 16.6556 16.0506 16.2632 16.0506H7.73684C7.34443 16.0506 7.02632 16.3687 7.02632 16.7611C7.02632 17.1535 7.34443 17.4716 7.73684 17.4716Z" fill="#0085FF"/>
</svg>
