<svg width="25" height="25" viewBox="0 0 25 25" fill="none" xmlns="http://www.w3.org/2000/svg">
    <path d="M20.0833 6.80003C20.0524 5.8643 19.5624 5.0039 18.7733 4.50003C17.7057 3.80535 16.3676 3.67117 15.1833 4.14003L10.6333 5.91003C9.47789 6.31725 8.68615 7.38609 8.63331 8.61003V15.93C8.2334 15.7167 7.78653 15.6067 7.33331 15.61C6.20395 15.61 5.18599 16.2909 4.75474 17.3347C4.32349 18.3784 4.56403 19.5793 5.36404 20.3764C6.16405 21.1735 7.36572 21.4098 8.40794 20.9748C9.45017 20.5398 10.1274 19.5194 10.1233 18.39C10.1276 18.3368 10.1276 18.2833 10.1233 18.23V8.61003C10.1816 7.99691 10.6042 7.47959 11.1933 7.30003L15.7333 5.50003C16.4597 5.21784 17.2772 5.29959 17.9333 5.72003C18.3179 5.95252 18.5616 6.36115 18.5833 6.81003V14.08C18.1849 13.8605 17.7381 13.7437 17.2833 13.74C15.7585 13.731 14.5089 14.9478 14.4774 16.4723C14.4459 17.9968 15.6441 19.2642 17.1679 19.3182C18.6918 19.3723 19.9768 18.1929 20.0533 16.67C20.058 16.6235 20.058 16.5766 20.0533 16.53L20.0833 6.80003Z" fill="#0085FF"/>
</svg>
