<svg width="19" height="21" viewBox="0 0 19 21" fill="none" xmlns="http://www.w3.org/2000/svg">
    <path fill-rule="evenodd" clip-rule="evenodd" d="M1.06176 6.16955C2.48796 2.74491 5.82961 0.51026 9.53934 0.500351C13.5444 0.476288 17.1069 3.04059 18.3553 6.84614C19.6038 10.6517 18.2527 14.828 15.0117 17.1811C11.7707 19.5342 7.3813 19.5258 4.14934 17.1604L1.27934 20.0304C0.986522 20.3228 0.512158 20.3228 0.21934 20.0304C-0.0731134 19.7375 -0.0731134 19.2632 0.21934 18.9704L3.00934 16.1804C0.403243 13.5402 -0.364444 9.59419 1.06176 6.16955ZM11.86 6.54197C12.1041 7.1258 12.6766 7.5044 13.3093 7.50035C14.1654 7.50035 14.8593 6.80639 14.8593 5.95035C14.8634 5.31759 14.4848 4.74506 13.901 4.50105C13.3171 4.25703 12.6437 4.38986 12.1963 4.8373C11.7488 5.28474 11.616 5.95814 11.86 6.54197Z" fill="#0085FF"/>
</svg>
