<svg width="25" height="25" viewBox="0 0 25 25" fill="none" xmlns="http://www.w3.org/2000/svg">
    <path fill-rule="evenodd" clip-rule="evenodd" d="M22.4067 15.24L22.5467 15.93C22.6991 16.5195 22.5748 17.1462 22.2088 17.6328C21.8429 18.1194 21.2753 18.4129 20.6667 18.43H16.8567C16.8576 20.0486 15.5743 21.3761 13.9567 21.43H5.66667C4.75121 21.4148 3.89279 20.9824 3.33568 20.2558C2.77857 19.5293 2.58375 18.588 2.80667 17.7L3.01667 16.7C3.26085 15.3224 4.44781 14.3117 5.84667 14.29H13.7867C14.141 13.8665 14.6645 13.6212 15.2167 13.62H20.5067C21.4407 13.6498 22.2296 14.3224 22.4067 15.24ZM20.6467 16.92C20.7687 16.9155 20.8823 16.8568 20.9567 16.76C21.0875 16.628 21.1533 16.4451 21.1367 16.26L20.9967 15.57C20.9696 15.3465 20.7908 15.1718 20.5667 15.15H15.2767C15.1616 15.1508 15.0538 15.2065 14.9867 15.3C14.6999 15.6303 14.284 15.82 13.8467 15.82H5.90667C5.22208 15.8367 4.64846 16.3428 4.54667 17.02L4.33667 18.02C4.2341 18.5125 4.35494 19.0252 4.66667 19.42C4.91017 19.7271 5.27511 19.9132 5.66667 19.93H13.9267C14.7315 19.8766 15.3499 19.1963 15.3267 18.39C15.343 17.5733 16.0098 16.9198 16.8267 16.92H20.6467Z" fill="#82898F"/>
    <path fill-rule="evenodd" clip-rule="evenodd" d="M13.7667 8.50001C13.7667 10.7091 11.9758 12.5 9.76667 12.5C7.55753 12.5 5.76667 10.7091 5.76667 8.50001V6.93001C5.76667 5.07433 7.27099 3.57001 9.12667 3.57001H10.4367C12.2806 3.58647 13.7667 5.08598 13.7667 6.93001V8.50001ZM9.12667 5.07001C8.09942 5.07001 7.26667 5.90276 7.26667 6.93001L7.29667 8.50001C7.45626 9.75918 8.52742 10.7031 9.79667 10.7031C11.0659 10.7031 12.1371 9.75918 12.2967 8.50001V6.93001C12.2967 5.90276 11.4639 5.07001 10.4367 5.07001H9.12667Z" fill="#82898F"/>
    <path fill-rule="evenodd" clip-rule="evenodd" d="M21.3467 8.75001C21.3467 10.4069 20.0035 11.75 18.3467 11.75C16.6898 11.75 15.3467 10.4069 15.3467 8.75001V7.60001C15.3465 6.22372 16.4506 5.10185 17.8267 5.08001H18.8267C20.2184 5.08001 21.3467 6.20825 21.3467 7.60001V8.75001ZM17.8467 6.60001C17.2944 6.60001 16.8467 7.04772 16.8467 7.60001V8.75001C16.8467 9.57843 17.5182 10.25 18.3467 10.25C19.1751 10.25 19.8467 9.57843 19.8467 8.75001V7.60001C19.8467 7.04772 19.399 6.60001 18.8467 6.60001H17.8467Z" fill="#82898F"/>
</svg>
